<?xml version="1.0" standalone="no"?>
<!DOCTYPE svg PUBLIC "-//W3C//DTD SVG 20010904//EN"
 "http://www.w3.org/TR/2001/REC-SVG-20010904/DTD/svg10.dtd">
<svg version="1.0" xmlns="http://www.w3.org/2000/svg"
 width="704.000000pt" height="704.000000pt" viewBox="0 0 704.000000 704.000000"
 preserveAspectRatio="xMidYMid meet">
<metadata>
Created by potrace 1.11, written by Peter Selinger 2001-2013
</metadata>
<g transform="translate(0.000000,704.000000) scale(0.100000,-0.100000)"
fill="#000000" stroke="none">
<path d="M103 7027 c-38 -10 -57 -26 -75 -62 -12 -26 -14 -462 -14 -3455 1
-3405 1 -3425 21 -3452 11 -15 34 -33 50 -40 24 -10 699 -13 3440 -13 3374 -1
3410 -1 3447 18 21 12 42 33 49 50 10 24 13 730 13 3453 0 3198 -2 3424 -17
3448 -10 14 -29 33 -43 43 -25 16 -236 17 -3435 17 -1875 1 -3421 -2 -3436 -7z
m6687 -238 c3 -4 5 -738 5 -1631 l0 -1624 -1645 -1645 -1644 -1644 -1626 0
-1625 0 -1 3270 c0 1799 0 3272 2 3275 3 8 6528 7 6534 -1z m5 -5071 l0 -1473
-1472 0 c-810 -1 -1473 1 -1473 3 0 5 2934 2941 2940 2941 3 1 5 -662 5 -1471z"/>
<path d="M5027 6068 c-60 -127 -111 -239 -152 -333 -26 -61 -55 -128 -65 -150
-10 -22 -54 -130 -98 -240 -73 -183 -103 -259 -209 -545 -69 -186 -75 -203
-79 -215 -1 -5 -21 -62 -44 -125 -66 -183 -70 -195 -70 -202 0 -5 96 -8 213
-8 l212 0 69 200 69 200 361 0 361 0 69 -200 68 -200 219 0 c121 0 219 3 219
6 0 31 -395 1092 -450 1209 -5 11 -45 103 -89 205 -44 102 -104 239 -135 305
l-54 120 -200 3 -200 2 -15 -32z m305 -648 c47 -124 98 -259 113 -300 14 -41
31 -85 36 -98 5 -13 9 -27 9 -32 0 -6 -102 -10 -260 -10 -143 0 -260 1 -260 3
0 3 67 182 165 445 66 176 93 237 101 229 6 -7 49 -113 96 -237z"/>
<path d="M1368 5005 c-2 -2 -50 -6 -108 -9 -58 -4 -125 -9 -150 -12 -73 -7
-210 -23 -250 -29 -14 -2 -45 -7 -70 -10 -25 -3 -52 -8 -61 -11 -16 -4 -17
-120 -15 -1482 l1 -1477 55 -12 c30 -7 73 -15 95 -18 22 -3 51 -8 65 -10 14
-2 45 -7 70 -10 25 -3 56 -8 70 -10 23 -4 60 -7 285 -21 106 -6 552 -6 620 0
61 6 109 12 193 22 80 10 253 51 332 79 355 128 552 349 605 676 12 80 13 285
0 344 -22 107 -61 211 -102 278 -60 96 -164 180 -302 245 l-82 39 57 38 c119
79 223 214 266 345 26 83 32 273 11 373 -76 368 -389 595 -893 652 -30 3 -73
8 -95 11 -42 6 -591 14 -597 9z m564 -559 c239 -39 340 -108 366 -253 23 -133
-17 -255 -105 -316 -42 -29 -122 -63 -170 -72 -15 -2 -37 -7 -48 -9 -65 -13
-168 -18 -357 -18 -117 0 -219 1 -225 1 -10 1 -13 74 -13 331 l0 329 33 6 c70
12 448 13 519 1z m53 -1200 c216 -30 344 -95 400 -205 31 -62 39 -103 37 -193
-3 -138 -61 -242 -169 -301 -61 -33 -206 -75 -292 -85 -87 -9 -495 -9 -543 1
l-38 8 0 389 c0 256 3 389 10 392 19 6 544 1 595 -6z"/>
</g>
</svg>
